<?xml version="1.0" standalone="no"?>
<!DOCTYPE svg PUBLIC "-//W3C//DTD SVG 20010904//EN"
 "http://www.w3.org/TR/2001/REC-SVG-20010904/DTD/svg10.dtd">
<svg version="1.0" xmlns="http://www.w3.org/2000/svg"
 width="646.000000pt" height="130.000000pt" viewBox="0 0 646.000000 130.000000"
 preserveAspectRatio="xMidYMid meet">

<g transform="translate(0.000000,130.000000) scale(0.100000,-0.100000)"
fill="currentColor" stroke="none">
<path d="M4305 1277 c-3 -12 -5 -52 -3 -87 l3 -65 93 -3 c91 -3 92 -2 102 23
6 15 10 55 10 91 l0 64 -100 0 c-95 0 -100 -1 -105 -23z"/>
<path d="M0 610 l0 -602 243 4 c229 4 246 6 323 31 250 82 394 293 394 577 0
168 -49 305 -146 409 -67 73 -128 113 -225 148 -71 26 -83 27 -331 31 l-258 4
0 -602z m515 415 c156 -75 235 -234 222 -443 -7 -109 -26 -172 -76 -250 -74
-113 -170 -161 -343 -169 l-108 -6 0 453 0 452 123 -4 c110 -3 128 -7 182 -33z"/>
<path d="M3662 869 c-29 -5 -71 -18 -93 -30 -45 -22 -122 -98 -147 -144 l-17
-30 -2 45 c-2 25 -5 69 -9 98 l-5 52 -95 0 -94 0 3 -422 2 -423 100 0 100 0 2
214 c2 242 11 286 72 374 52 74 116 110 201 115 80 5 128 -14 163 -62 21 -30
22 -39 25 -339 l3 -307 100 0 100 0 -3 328 -3 328 -26 49 c-31 62 -89 107
-171 133 -80 26 -139 31 -206 21z"/>
<path d="M2472 850 c-182 -65 -283 -229 -269 -440 12 -191 105 -317 282 -382
50 -18 81 -22 185 -22 72 0 147 5 178 13 l52 13 0 89 c0 49 -2 89 -4 89 -2 0
-30 -12 -62 -27 -50 -23 -72 -27 -159 -27 -84 -1 -106 2 -140 21 -69 37 -125
114 -125 172 0 20 8 20 279 23 336 4 321 -2 321 118 0 51 -7 102 -21 146 -18
57 -31 77 -83 130 -53 52 -73 65 -130 83 -90 28 -229 28 -304 1z m273 -144
c47 -28 79 -81 90 -153 l7 -43 -172 0 -171 0 -50 -52 -50 -53 4 76 c8 126 68
228 145 245 15 3 32 8 37 10 27 10 120 -7 160 -30z"/>
<path d="M5985 856 c-101 -26 -161 -69 -190 -138 -41 -100 2 -215 104 -279 25
-17 105 -48 176 -70 180 -57 232 -101 190 -165 -24 -38 -79 -56 -165 -57 -89
0 -171 21 -258 69 l-63 34 3 -97 3 -98 80 -23 c156 -45 337 -39 455 14 104 48
140 103 140 216 0 131 -62 194 -244 249 -150 45 -184 58 -217 86 -41 35 -38
79 7 105 72 42 239 32 339 -20 27 -15 53 -28 58 -30 4 -2 7 40 7 92 0 96 0 97
-27 108 -42 17 -337 20 -398 4z"/>
<path d="M1150 537 l0 -323 26 -53 c46 -92 146 -147 289 -158 127 -10 238 43
311 150 l33 48 6 -33 c3 -18 6 -60 8 -93 l2 -60 93 -3 92 -3 0 426 0 425 -100
0 -100 0 0 -210 c0 -186 -2 -217 -21 -273 -26 -81 -80 -153 -143 -192 -43 -26
-59 -30 -120 -30 -84 0 -123 19 -155 75 -20 36 -21 52 -21 334 l0 296 -100 0
-100 0 0 -323z"/>
<path d="M4300 573 c1 -284 11 -538 23 -549 3 -4 47 -9 97 -12 l90 -5 0 427 0
426 -105 0 -105 0 0 -287z"/>
<path d="M4965 846 c-196 -62 -300 -252 -267 -487 22 -155 101 -272 220 -327
47 -21 72 -26 147 -26 79 -1 96 2 140 26 48 25 115 87 147 136 14 21 15 18 22
-60 4 -45 9 -85 12 -88 3 -3 44 -7 90 -9 l84 -3 0 426 0 426 -90 0 c-100 0
-89 9 -108 -90 l-8 -45 -49 68 -49 67 -125 -1 c-72 0 -143 -6 -166 -13z m383
-318 c-3 -176 -4 -185 -30 -233 -141 -267 -441 -140 -415 176 7 80 27 133 70
178 51 54 76 60 235 61 l144 0 -4 -182z"/>
</g>
</svg>
